{"title":"Jennifer Lopez - Feel The Light (from Home) 2015","uid":11770369,"size":123278837,"categoryP":"video","categoryS":"music_videos","magnet":"?xt=urn:btih:2d86363984a940c8fa6d4b17a50158d7fc035306&amp;dn=Jennifer+Lopez+-+Feel+The+Light+%28from+Home%29+2015&amp;tr=udp%3A%2F%2Ftracker.openbittorrent.com%3A80&amp;tr=udp%3A%2F%2Fopen.demonii.com%3A1337&amp;tr=udp%3A%2F%2Ftracker.coppersurfer.tk%3A6969&amp;tr=udp%3A%2F%2Fexodus.desync.com%3A6969","seeders":21,"leechers":0,"uploader":"MeRaDil","files":1,"time":1427048011,"description":"JENNIFER LOPEZ - FEEL THE LIGHT\n\n &lt;a href=&quot;\nhttp://gifyu.com/images/lopez.png&quot; rel=&quot;nofollow&quot; target=&quot;_NEW&quot;&gt;\nhttp://gifyu.com/images/lopez.png&lt;/a&gt;\n &lt;a href=&quot;\nhttp://gifyu.com/images/Jennifer-Lopez.png&quot; rel=&quot;nofollow&quot; target=&quot;_NEW&quot;&gt;\nhttp://gifyu.com/images/Jennifer-Lopez.png&lt;/a&gt;\n\nGeneral\nJennifer Lopez - Feel The Light (from The Original Motion Picture. Home)\nFormat                      : MPEG-4\nFormat profile              : Base Media\nCodec ID                    : isom\nFile size                   : 118 MiB\nDuration                    : 4mn 8s\nOverall bit rate            : 3 974 Kbps\nMusicVid name               : Feel The Light\nAlbum                       : OST.Home\nPerformer                   : Jennifer Lopez\nGenre                       : Soundtrack\nContentType                 : Music Video\nRecorded date               : 2015\nCopyright                   : Jennifer Lopez &amp; Home\nCover                       : Yes\nComment                     : from the movie &quot;Home&quot;\nRating                      : ****\nMake                        : MeRaDil\nArtist url                  : http://www.jenniferlopez.com\nRelease                     : USA . march 20 . 2015\nPart_ID                     : Feel The Light\n\nVideo\nID                          : 1\nFormat                      : AVC\nFormat/Info                 : Advanced Video Codec\nFormat profile              : &lt;a class=&quot;__cf_email__&quot; href=&quot;/cdn-cgi/l/email-protection&quot; data-cfemail=&quot;642c0d030c2428504a54&quot;&gt;[email&amp;#160;protected]&lt;/a&gt;&lt;script cf-hash='f9e31' type=&quot;text/javascript&quot;&gt;\n/* &lt;![CDATA[ */!function(){try{var t=&quot;currentScript&quot;in document?document.currentScript:function(){for(var t=document.getElementsByTagName(&quot;script&quot;),e=t.length;e--;)if(t[e].getAttribute(&quot;cf-hash&quot;))return t[e]}();if(t&amp;&amp;t.previousSibling){var e,r,n,i,c=t.previousSibling,a=c.getAttribute(&quot;data-cfemail&quot;);if(a){for(e=&quot;&quot;,r=parseInt(a.substr(0,2),16),n=2;a.length-n;n+=2)i=parseInt(a.substr(n,2),16)^r,e+=String.fromCharCode(i);e=document.createTextNode(e),c.parentNode.replaceChild(e,c)}}}catch(u){}}();/* ]]&gt; */&lt;/script&gt;\nFormat settings, CABAC      : Yes\nFormat settings, ReFrames   : 2 frames\nCodec ID                    : avc1\nCodec ID/Info               : Advanced Video Coding\nDuration                    : 4mn 8s\nBit rate                    : 3 711 Kbps\nWidth                       : 1 920 pixels\nHeight                      : 1 080 pixels\nDisplay aspect ratio        : 16:9\nFrame rate mode             : Variable\nFrame rate                  : 23.976 fps\nMinimum frame rate          : 23.974 fps\nMaximum frame rate          : 23.981 fps\nColor space                 : YUV\nChroma subsampling          : 4:2:0\nBit depth                   : 8 bits\nScan type                   : Progressive\nBits/(Pixel*Frame)          : 0.075\nStream size                 : 110 MiB (93%)\n\nAudio\nID                          : 2\nFormat                      : AAC\nFormat/Info                 : Advanced Audio Codec\nFormat profile              : LC\nCodec ID                    : 40\nDuration                    : 4mn 8s\nBit rate mode               : Constant\nBit rate                    : 256 Kbps\nChannel(s)                  : 2 channels\nChannel positions           : Front: L R\nSampling rate               : 44.1 KHz\nCompression mode            : Lossy\nStream size                 : 7.57 MiB (6%)\n &lt;a href=&quot;\nhttps://thepiratebay.se/user/MeRaDil&quot; rel=&quot;nofollow&quot; target=&quot;_NEW&quot;&gt;\nhttps://thepiratebay.se/user/MeRaDil&lt;/a&gt;\n\nJennifer Lopez * Home * Soundtrack * Promo","torrent":{"xt":"urn:btih:2d86363984a940c8fa6d4b17a50158d7fc035306","amp;dn":"Jennifer+Lopez+-+Feel+The+Light+%28from+Home%29+2015","amp;tr":["udp%3A%2F%2Ftracker.openbittorrent.com%3A80","udp%3A%2F%2Fopen.demonii.com%3A1337","udp%3A%2F%2Ftracker.coppersurfer.tk%3A6969","udp%3A%2F%2Fexodus.desync.com%3A6969"],"infoHash":"2d86363984a940c8fa6d4b17a50158d7fc035306","infoHashBuffer":{"type":"Buffer","data":[45,134,54,57,132,169,64,200,250,109,75,23,165,1,88,215,252,3,83,6]},"announce":[],"urlList":[]}}